<mxfile host="app.diagrams.net" agent="Mozilla/5.0 (Windows NT 10.0; Win64; x64) AppleWebKit/537.36 (KHTML, like Gecko) Chrome/128.0.0.0 Safari/537.36 Edg/128.0.0.0" version="24.7.15" pages="2">
  <diagram name="Page-1" id="AW2i8apj6tMe_CCILZKY">
    <mxGraphModel>
      <root>
        <mxCell id="0" />
        <mxCell id="1" parent="0" />
      </root>
    </mxGraphModel>
  </diagram>
  <diagram id="fL-0escjvCju7beFiGhU" name="Resources EC2">
    <mxGraphModel dx="2001" dy="3307" grid="1" gridSize="10" guides="1" tooltips="1" connect="1" arrows="1" fold="1" page="1" pageScale="1" pageWidth="850" pageHeight="1100" math="0" shadow="0">
      <root>
        <mxCell id="0" />
        <mxCell id="1" parent="0" />
        <mxCell id="S3xF-uC99B2JrpNq7Ahm-1" value="AMI" style="outlineConnect=0;dashed=0;verticalLabelPosition=bottom;verticalAlign=top;align=center;html=1;shape=mxgraph.aws3.ami;fillColor=#F58534;gradientColor=none;" vertex="1" parent="1">
          <mxGeometry x="100" y="140" width="60" height="63" as="geometry" />
        </mxCell>
        <mxCell id="S3xF-uC99B2JrpNq7Ahm-2" value="Created based on instance EC2: &quot;webserver&quot;&lt;div&gt;An AMI is a template that contains the software configuration (operating system, application server, and applications) required to launch your instance.&lt;br&gt;&lt;/div&gt;" style="text;html=1;align=left;verticalAlign=middle;whiteSpace=wrap;rounded=0;strokeColor=default;dashed=1;" vertex="1" parent="1">
          <mxGeometry x="170" y="140" width="400" height="80" as="geometry" />
        </mxCell>
        <mxCell id="S3xF-uC99B2JrpNq7Ahm-3" value="Launch&amp;nbsp;&lt;div&gt;template&lt;/div&gt;" style="outlineConnect=0;dashed=0;verticalLabelPosition=bottom;verticalAlign=top;align=center;html=1;shape=mxgraph.aws3.template;fillColor=#f58534;gradientColor=none;" vertex="1" parent="1">
          <mxGeometry x="102.25" y="420" width="55.5" height="64.5" as="geometry" />
        </mxCell>
        <mxCell id="S3xF-uC99B2JrpNq7Ahm-5" value="use this custom AMI&amp;nbsp;&lt;div&gt;(required)&lt;/div&gt;" style="edgeStyle=orthogonalEdgeStyle;rounded=0;orthogonalLoop=1;jettySize=auto;html=1;dashed=1;" edge="1" parent="1">
          <mxGeometry relative="1" as="geometry">
            <mxPoint x="130" y="400" as="sourcePoint" />
            <mxPoint x="130" y="240" as="targetPoint" />
          </mxGeometry>
        </mxCell>
        <mxCell id="6zmZMP-hy8pC5Rgot6KQ-1" value="1" style="ellipse;whiteSpace=wrap;html=1;aspect=fixed;fillColor=#ffe6cc;strokeColor=#d79b00;" vertex="1" parent="1">
          <mxGeometry x="80" y="120" width="20" height="20" as="geometry" />
        </mxCell>
        <mxCell id="6zmZMP-hy8pC5Rgot6KQ-2" value="2" style="ellipse;whiteSpace=wrap;html=1;aspect=fixed;fillColor=#ffe6cc;strokeColor=#d79b00;" vertex="1" parent="1">
          <mxGeometry x="80" y="410" width="20" height="20" as="geometry" />
        </mxCell>
        <mxCell id="6zmZMP-hy8pC5Rgot6KQ-4" value="&lt;div&gt;Creating a launch template allows you to create a saved instance configuration that can be reused, shared and launched at a later time. Templates can have multiple versions.&lt;br&gt;&lt;/div&gt;" style="text;html=1;align=left;verticalAlign=middle;whiteSpace=wrap;rounded=0;strokeColor=default;dashed=1;" vertex="1" parent="1">
          <mxGeometry x="180" y="420" width="400" height="80" as="geometry" />
        </mxCell>
        <mxCell id="28b8I21VQ1IwUqqT0UfH-1" value="" style="sketch=0;outlineConnect=0;fontColor=#232F3E;gradientColor=none;fillColor=#DD344C;strokeColor=none;dashed=0;verticalLabelPosition=bottom;verticalAlign=top;align=center;html=1;fontSize=12;fontStyle=0;aspect=fixed;pointerEvents=1;shape=mxgraph.aws4.role;" vertex="1" parent="1">
          <mxGeometry x="60" y="-1470" width="78" height="44" as="geometry" />
        </mxCell>
        <UserObject label="IAM Role #2" linkTarget="_blank" link="https://github.com/jjoselon/Software/blob/master/Draw.io/Resources/IAM.drawio" id="28b8I21VQ1IwUqqT0UfH-2">
          <mxCell style="fontColor=#0000EE;fontStyle=4;rounded=1;overflow=hidden;spacing=10;strokeColor=none;fontFamily=Roboto Mono;fontSource=https%3A%2F%2Ffonts.googleapis.com%2Fcss%3Ffamily%3DRoboto%2BMono;fontSize=9;" vertex="1" parent="1">
            <mxGeometry x="60" y="-1490" width="84.5" height="20" as="geometry" />
          </mxCell>
        </UserObject>
        <mxCell id="28b8I21VQ1IwUqqT0UfH-3" value="" style="sketch=0;outlineConnect=0;fontColor=#232F3E;gradientColor=none;fillColor=#DD344C;strokeColor=none;dashed=0;verticalLabelPosition=bottom;verticalAlign=top;align=center;html=1;fontSize=12;fontStyle=0;aspect=fixed;pointerEvents=1;shape=mxgraph.aws4.role;" vertex="1" parent="1">
          <mxGeometry x="180" y="560" width="78" height="44" as="geometry" />
        </mxCell>
        <UserObject label="IAM Role #2" linkTarget="_blank" link="https://github.com/jjoselon/Software/blob/master/Draw.io/Resources/IAM.drawio" id="28b8I21VQ1IwUqqT0UfH-4">
          <mxCell style="fontColor=#0000EE;fontStyle=4;rounded=1;overflow=hidden;spacing=10;strokeColor=none;fontFamily=Roboto Mono;fontSource=https%3A%2F%2Ffonts.googleapis.com%2Fcss%3Ffamily%3DRoboto%2BMono;fontSize=9;" vertex="1" parent="1">
            <mxGeometry x="180" y="540" width="84.5" height="20" as="geometry" />
          </mxCell>
        </UserObject>
        <mxCell id="28b8I21VQ1IwUqqT0UfH-5" value="IAM instance profile" style="text;html=1;align=center;verticalAlign=middle;whiteSpace=wrap;rounded=0;" vertex="1" parent="1">
          <mxGeometry x="162.25" y="520" width="120" height="20" as="geometry" />
        </mxCell>
        <mxCell id="28b8I21VQ1IwUqqT0UfH-6" value="&lt;div&gt;Load Balancer&lt;/div&gt;Type &lt;b&gt;Application Load&lt;/b&gt;&lt;div&gt;&lt;b&gt;Balancer&lt;/b&gt;&lt;/div&gt;" style="outlineConnect=0;dashed=0;verticalLabelPosition=bottom;verticalAlign=top;align=center;html=1;shape=mxgraph.aws3.application_load_balancer;fillColor=#F58536;gradientColor=none;" vertex="1" parent="1">
          <mxGeometry x="102.25" y="680" width="69" height="72" as="geometry" />
        </mxCell>
        <mxCell id="28b8I21VQ1IwUqqT0UfH-7" value="3" style="ellipse;whiteSpace=wrap;html=1;aspect=fixed;fillColor=#ffe6cc;strokeColor=#d79b00;" vertex="1" parent="1">
          <mxGeometry x="82.25" y="680" width="20" height="20" as="geometry" />
        </mxCell>
        <mxCell id="28b8I21VQ1IwUqqT0UfH-8" value="&lt;div&gt;Choose an Application Load Balancer when you need a flexible feature set for your applications with HTTP and HTTPS traffic. Operating at the request level, Application Load Balancers provide advanced routing and visibility features targeted at application architectures, including microservices and containers.&lt;br&gt;&lt;/div&gt;" style="text;html=1;align=left;verticalAlign=middle;whiteSpace=wrap;rounded=0;strokeColor=default;dashed=1;" vertex="1" parent="1">
          <mxGeometry x="210" y="700" width="400" height="80" as="geometry" />
        </mxCell>
        <mxCell id="28b8I21VQ1IwUqqT0UfH-10" value="" style="rounded=1;arcSize=10;dashed=1;strokeColor=#ff0000;fillColor=none;gradientColor=none;strokeWidth=2;" vertex="1" parent="1">
          <mxGeometry x="210" y="830" width="90" height="40" as="geometry" />
        </mxCell>
        <UserObject label="SG #1" linkTarget="_blank" link="https://github.com/jjoselon/Software/blob/master/Draw.io/Resources/EC2.drawio" id="28b8I21VQ1IwUqqT0UfH-11">
          <mxCell style="fontColor=#0000EE;fontStyle=4;rounded=1;overflow=hidden;spacing=10;" vertex="1" parent="1">
            <mxGeometry x="225" y="840" width="60" height="20" as="geometry" />
          </mxCell>
        </UserObject>
        <mxCell id="28b8I21VQ1IwUqqT0UfH-12" value="Security group" style="text;html=1;align=center;verticalAlign=middle;whiteSpace=wrap;rounded=0;" vertex="1" parent="1">
          <mxGeometry x="207.25" y="810" width="95.5" height="20" as="geometry" />
        </mxCell>
        <mxCell id="28b8I21VQ1IwUqqT0UfH-13" value="Target group" style="text;html=1;align=center;verticalAlign=middle;whiteSpace=wrap;rounded=0;" vertex="1" parent="1">
          <mxGeometry x="332.25" y="810" width="95.5" height="20" as="geometry" />
        </mxCell>
        <UserObject label="Target group #1" linkTarget="_blank" link="https://github.com/jjoselon/Software/blob/master/Draw.io/Resources/EC2.drawio" id="28b8I21VQ1IwUqqT0UfH-14">
          <mxCell style="fontColor=#0000EE;fontStyle=4;rounded=1;overflow=hidden;spacing=10;" vertex="1" parent="1">
            <mxGeometry x="332.25" y="840" width="100" height="20" as="geometry" />
          </mxCell>
        </UserObject>
        <UserObject label="Load balancer" linkTarget="_blank" link="https://us-east-2.console.aws.amazon.com/ec2/home?region=us-east-2#LoadBalancer:loadBalancerArn=arn:aws:elasticloadbalancing:us-east-2:014498653743:loadbalancer/app/alb-to-webserver/6f76838230f19512;tab=listeners" id="28b8I21VQ1IwUqqT0UfH-15">
          <mxCell style="fontColor=#0000EE;fontStyle=4;rounded=1;overflow=hidden;spacing=10;" vertex="1" parent="1">
            <mxGeometry x="94.25" y="810" width="85" height="20" as="geometry" />
          </mxCell>
        </UserObject>
        <mxCell id="28b8I21VQ1IwUqqT0UfH-16" value="Auto Scaling group" style="points=[[0,0],[0.25,0],[0.5,0],[0.75,0],[1,0],[1,0.25],[1,0.5],[1,0.75],[1,1],[0.75,1],[0.5,1],[0.25,1],[0,1],[0,0.75],[0,0.5],[0,0.25]];outlineConnect=0;gradientColor=none;html=1;whiteSpace=wrap;fontSize=12;fontStyle=0;container=1;pointerEvents=0;collapsible=0;recursiveResize=0;shape=mxgraph.aws4.groupCenter;grIcon=mxgraph.aws4.group_auto_scaling_group;grStroke=1;strokeColor=#D86613;fillColor=none;verticalAlign=top;align=center;fontColor=#D86613;dashed=1;spacingTop=25;" vertex="1" parent="1">
          <mxGeometry x="102.25" y="960" width="130" height="80" as="geometry" />
        </mxCell>
        <mxCell id="28b8I21VQ1IwUqqT0UfH-18" value="4" style="ellipse;whiteSpace=wrap;html=1;aspect=fixed;fillColor=#ffe6cc;strokeColor=#d79b00;" vertex="1" parent="1">
          <mxGeometry x="80" y="940" width="20" height="20" as="geometry" />
        </mxCell>
        <mxCell id="28b8I21VQ1IwUqqT0UfH-19" style="edgeStyle=orthogonalEdgeStyle;rounded=0;orthogonalLoop=1;jettySize=auto;html=1;entryX=0;entryY=0.5;entryDx=0;entryDy=0;entryPerimeter=0;dashed=1;" edge="1" parent="1" source="28b8I21VQ1IwUqqT0UfH-16" target="S3xF-uC99B2JrpNq7Ahm-3">
          <mxGeometry relative="1" as="geometry">
            <Array as="points">
              <mxPoint x="-70" y="1020" />
              <mxPoint x="-70" y="452" />
            </Array>
          </mxGeometry>
        </mxCell>
        <mxCell id="28b8I21VQ1IwUqqT0UfH-20" value="use this&lt;div&gt;launch template&lt;/div&gt;" style="edgeLabel;html=1;align=center;verticalAlign=middle;resizable=0;points=[];" vertex="1" connectable="0" parent="28b8I21VQ1IwUqqT0UfH-19">
          <mxGeometry x="0.0397" y="1" relative="1" as="geometry">
            <mxPoint as="offset" />
          </mxGeometry>
        </mxCell>
        <mxCell id="28b8I21VQ1IwUqqT0UfH-22" value="&lt;div&gt;&lt;div&gt;Specify a launch template that contains settings common to all EC2 instances that are launched by this Auto Scaling group.&lt;/div&gt;&lt;div&gt;&lt;br&gt;&lt;/div&gt;&lt;div&gt;&lt;br&gt;&lt;/div&gt;&lt;div&gt;&lt;br&gt;&lt;/div&gt;&lt;/div&gt;" style="text;html=1;align=left;verticalAlign=top;whiteSpace=wrap;rounded=0;strokeColor=default;dashed=1;" vertex="1" parent="1">
          <mxGeometry x="240" y="960" width="400" height="40" as="geometry" />
        </mxCell>
        <mxCell id="28b8I21VQ1IwUqqT0UfH-23" style="edgeStyle=orthogonalEdgeStyle;rounded=0;orthogonalLoop=1;jettySize=auto;html=1;entryX=0;entryY=0.5;entryDx=0;entryDy=0;entryPerimeter=0;dashed=1;" edge="1" parent="1" source="28b8I21VQ1IwUqqT0UfH-16" target="28b8I21VQ1IwUqqT0UfH-6">
          <mxGeometry relative="1" as="geometry">
            <Array as="points">
              <mxPoint x="10" y="1000" />
              <mxPoint x="10" y="716" />
            </Array>
          </mxGeometry>
        </mxCell>
        <mxCell id="28b8I21VQ1IwUqqT0UfH-24" value="attach this&lt;div&gt;load balancer&lt;/div&gt;" style="edgeLabel;html=1;align=center;verticalAlign=middle;resizable=0;points=[];" vertex="1" connectable="0" parent="28b8I21VQ1IwUqqT0UfH-23">
          <mxGeometry x="-0.0299" relative="1" as="geometry">
            <mxPoint as="offset" />
          </mxGeometry>
        </mxCell>
        <UserObject label="home?region=us-east-2#AutoScalingGroupDetails:id=auto-sg-webserver;view=details" linkTarget="_blank" link="https://us-east-2.console.aws.amazon.com/ec2/home?region=us-east-2#AutoScalingGroupDetails:id=auto-sg-webserver;view=details" id="28b8I21VQ1IwUqqT0UfH-25">
          <mxCell style="fontColor=#0000EE;fontStyle=4;rounded=1;overflow=hidden;spacing=10;" vertex="1" parent="1">
            <mxGeometry x="240" y="1010" width="400" height="40" as="geometry" />
          </mxCell>
        </UserObject>
      </root>
    </mxGraphModel>
  </diagram>
</mxfile>
